:SAMPLES-PER-SECOND 30
:FULLY-SPECIFIED
:DEGREES
175
root  -11.7594 40.582 8.39719 -168.334 -79.4611 168.949
RightUpLeg  -3.27296 -14.2401 -15.0863
RightLeg  8.07745 -10.0067 1.49388
RightFoot  -0.387017 -0.787496 8.17142
RightToes  -2.9104e-010 0 -3.6325e-017
Spine  12.2594 2.99216 7.21806
Spine1  19.2333 8.42207 -11.7659
HEad  -7.57737 -9.5194 12.2239
LeftShoulder1  8.722 -14.0124 -43.3122
LeftArm  -10.8477 10.7459 -25.0919
LeftForeArm  35.3941 -28.8324 -4.31852
LeftHand  -0.244104 0.0205437 5.32207
RightShoulder  5.65958 11.6393 31.4208
RightArm  23.3336 48.824 45.27
RightForeArm  5.29997 21.207 5.20295
RightHand  -0.672638 3.00419 -9.51969
LeftUpLeg  -10.5954 5.97578 -0.0994017
LeftLeg  9.54197 3.31452 -2.64017
LeftFoot  1.50224 -0.293394 2.52577
LeftToes  -1.62803e-010 -2.57217e-011 -2.5681e-011
176
root  -11.7302 40.6053 8.28472 -169.71 -77.6927 169.934
RightUpLeg  -3.46811 -13.9641 -14.8568
RightLeg  8.05813 -8.51337 1.47018
RightFoot  -0.401783 -0.76215 7.91791
RightToes  -2.9104e-010 0 -3.6325e-017
Spine  11.8842 2.94286 7.03739
Spine1  19.2803 8.05643 -11.046
HEad  -8.01964 -8.85301 11.2728
LeftShoulder1  8.7797 -14.0144 -43.6104
LeftArm  -10.7794 10.3535 -25.212
LeftForeArm  35.2789 -28.3688 -4.22205
LeftHand  -0.244104 0.0205437 5.32207
RightShoulder  6.30016 12.3046 33.8959
RightArm  18.0151 43.9175 44.5655
RightForeArm  14.1615 15.4749 7.45866
RightHand  -0.578864 2.65205 -8.55763
LeftUpLeg  -9.64813 5.98885 0.444542
LeftLeg  8.94407 4.88446 -2.84954
LeftFoot  1.41781 -0.239085 2.06176
LeftToes  -1.62803e-010 -2.57217e-011 -2.5681e-011
177
root  -11.685 40.6287 8.14569 -170.762 -76.001 170.716
RightUpLeg  -3.78001 -13.6939 -14.5404
RightLeg  8.06139 -7.12995 1.4842
RightFoot  -0.416128 -0.733631 7.63034
RightToes  -2.9104e-010 0 -3.6325e-017
Spine  11.607 2.94382 6.92215
Spine1  19.1864 7.70203 -10.2139
HEad  -8.40462 -8.14929 10.1767
LeftShoulder1  8.81692 -13.9889 -43.8728
LeftArm  -10.6773 9.87875 -25.4729
LeftForeArm  35.2068 -28.1714 -4.18231
LeftHand  -0.244104 0.0205437 5.32207
RightShoulder  6.92839 12.8209 36.4398
RightArm  6.31103 38.9014 42.2452
RightForeArm  24.815 8.35964 9.16102
RightHand  -0.492704 1.99638 -7.93127
LeftUpLeg  -8.8341 5.98102 1.03465
LeftLeg  8.32892 6.3745 -3.0939
LeftFoot  1.3913 -0.177265 1.51361
LeftToes  -1.62803e-010 -2.57217e-011 -2.5681e-011
178
root  -11.6348 40.6519 7.9782 -171.618 -74.6318 171.384
RightUpLeg  -4.02078 -13.4365 -14.1685
RightLeg  8.03756 -6.11275 1.56179
RightFoot  -0.429935 -0.706846 7.35967
RightToes  -2.9104e-010 0 -3.6325e-017
Spine  11.3176 2.88558 6.86353
Spine1  19.0695 7.23943 -9.25194
HEad  -8.66629 -7.36677 9.22239
LeftShoulder1  8.83254 -13.9574 -44.0381
LeftArm  -10.7026 9.63649 -25.8135
LeftForeArm  35.2673 -28.7523 -4.30778
LeftHand  -0.244104 0.0205437 5.32207
RightShoulder  7.4119 13.0654 38.6548
RightArm  -1.7994 33.1686 39.5681
RightForeArm  27.3909 3.14152 7.9135
RightHand  -0.477179 1.15216 -8.60969
LeftUpLeg  -8.17839 5.95818 1.60488
LeftLeg  7.80018 7.5604 -3.2272
LeftFoot  1.40861 -0.111455 0.921457
LeftToes  -1.62803e-010 -2.57217e-011 -2.5681e-011
179
root  -11.5879 40.6752 7.78275 -172.34 -73.5892 171.955
RightUpLeg  -4.14984 -13.1771 -13.7658
RightLeg  8.01931 -5.45661 1.66618
RightFoot  -0.445837 -0.680054 7.0894
RightToes  -2.9104e-010 0 -3.6325e-017
Spine  10.9609 2.74952 6.8614
Spine1  19.0358 6.68911 -8.2481
HEad  -8.80726 -6.52809 8.41704
LeftShoulder1  8.85449 -13.9615 -44.1424
LeftArm  -10.8687 9.63951 -26.1208
LeftForeArm  35.6705 -30.0459 -4.57674
LeftHand  -0.244104 0.0205437 5.32207
RightShoulder  7.65014 13.0368 40.0997
RightArm  -7.90113 26.4859 36.926
RightForeArm  24.2548 0.614715 6.15829
RightHand  -0.636627 1.28634 -11.1219
LeftUpLeg  -7.62041 5.98938 2.14357
LeftLeg  7.35614 8.38542 -3.26156
LeftFoot  1.4618 -0.0496531 0.363856
LeftToes  -1.62803e-010 -2.57217e-011 -2.5681e-011
180
root  -11.5391 40.6989 7.56157 -172.858 -72.7001 172.396
RightUpLeg  -4.31918 -12.8815 -13.3197
RightLeg  8.05319 -5.00953 1.75041
RightFoot  -0.46735 -0.644178 6.72623
RightToes  -2.9104e-010 0 -3.6325e-017
Spine  10.5785 2.58408 6.82767
Spine1  18.9811 6.11637 -7.2759
HEad  -8.76916 -5.62529 7.692
LeftShoulder1  8.87821 -13.9714 -44.2402
LeftArm  -10.9419 9.56706 -26.3324
LeftForeArm  36.1752 -31.2801 -4.83295
LeftHand  -0.244104 0.0205437 5.32207
RightShoulder  7.675 12.8062 40.8613
RightArm  -12.4723 19.1232 34.2874
RightForeArm  18.3761 0.457378 5.08726
RightHand  -0.953393 2.59571 -14.031
LeftUpLeg  -7.14834 6.0544 2.65509
LeftLeg  6.9121 9.04399 -3.26427
LeftFoot  1.59381 0.00605018 -0.138228
LeftToes  -1.62803e-010 -2.57217e-011 -2.5681e-011
181
root  -11.4822 40.7234 7.31925 -173.19 -71.8961 172.732
RightUpLeg  -4.55872 -12.5574 -12.8313
RightLeg  8.10363 -4.689 1.83094
RightFoot  -0.501891 -0.595937 6.23826
RightToes  -2.9104e-010 0 -3.6325e-017
Spine  10.2322 2.36631 6.69137
Spine1  18.7942 5.49074 -6.34964
HEad  -8.42254 -4.54214 7.0491
LeftShoulder1  8.87237 -13.9252 -44.3326
LeftArm  -10.8609 9.2824 -26.4595
LeftForeArm  36.3965 -32.0057 -4.99136
LeftHand  -0.244104 0.0205437 5.32207
RightShoulder  7.57626 12.4669 41.2213
RightArm  -14.695 11.7355 31.5505
RightForeArm  12.2214 1.97931 4.87169
RightHand  -1.17029 3.51988 -15.4385
LeftUpLeg  -6.76367 6.05978 3.12103
LeftLeg  6.43918 9.7031 -3.19714
LeftFoot  1.82253 0.06146 -0.628149
LeftToes  -1.62803e-010 -2.57217e-011 -2.5681e-011
182
root  -11.4214 40.7462 7.06304 -173.53 -71.2414 173.06
RightUpLeg  -4.71327 -12.255 -12.333
RightLeg  8.13691 -4.48129 1.94468
RightFoot  -0.57065 -0.544406 5.728
RightToes  -2.9104e-010 0 -3.6325e-017
Spine  9.91699 2.01278 6.5047
Spine1  18.5972 4.73732 -5.47626
HEad  -7.76742 -3.25048 6.46011
LeftShoulder1  8.82477 -13.8091 -44.3933
LeftArm  -10.8861 9.05266 -26.5384
LeftForeArm  36.4905 -32.6675 -5.14418
LeftHand  -0.244104 0.0205437 5.32207
RightShoulder  7.39684 12.106 41.1729
RightArm  -14.9225 4.9586 28.8282
RightForeArm  8.21479 4.14948 5.15379
RightHand  -1.14231 3.39597 -15.2592
LeftUpLeg  -6.40355 6.01637 3.55123
LeftLeg  6.0097 10.2811 -3.01513
LeftFoot  2.07006 0.118795 -1.11735
LeftToes  -1.62803e-010 -2.57217e-011 -2.5681e-011
183
root  -11.3649 40.763 6.80086 -173.989 -70.7002 173.433
RightUpLeg  -4.75208 -12.0126 -11.8406
RightLeg  8.23763 -4.29905 2.07149
RightFoot  -0.706564 -0.496934 5.28255
RightToes  -2.9104e-010 0 -3.6325e-017
Spine  9.59477 1.52123 6.34029
Spine1  18.528 3.87858 -4.69199
HEad  -6.93311 -1.82489 5.80217
LeftShoulder1  8.74746 -13.6566 -44.3955
LeftArm  -11.1827 9.16345 -26.6089
LeftForeArm  36.9071 -33.7528 -5.38511
LeftHand  -0.244104 0.0205437 5.32207
RightShoulder  7.13992 11.7562 40.6115
RightArm  -13.8478 -0.820877 26.3564
RightForeArm  6.88337 5.98957 5.54802
RightHand  -1.096 3.26113 -14.8788
LeftUpLeg  -6.01604 6.04914 4.00085
LeftLeg  5.70588 10.6611 -2.79757
LeftFoot  2.24113 0.172464 -1.56283
LeftToes  -1.62803e-010 -2.57217e-011 -2.5681e-011
184
root  -11.315 40.7717 6.53925 -174.462 -70.0757 173.801
RightUpLeg  -4.85768 -11.8297 -11.3386
RightLeg  8.50991 -3.9782 2.1612
RightFoot  -0.918068 -0.447923 4.83793
RightToes  -2.9104e-010 0 -3.6325e-017
Spine  9.28239 0.996246 6.17405
Spine1  18.4421 3.03473 -4.04119
HEad  -5.98364 -0.245357 4.91471
LeftShoulder1  8.66136 -13.506 -44.3451
LeftArm  -11.5037 9.57849 -26.6775
LeftForeArm  37.5976 -34.9473 -5.64359
LeftHand  -0.244104 0.0205437 5.32207
RightShoulder  6.82773 11.4075 39.6664
RightArm  -12.3272 -5.53777 24.2286
RightForeArm  6.96688 7.03482 5.84256
RightHand  -1.17001 3.60516 -15.2708
LeftUpLeg  -5.6218 6.19925 4.49211
LeftLeg  5.50988 10.9912 -2.64788
LeftFoot  2.33933 0.217881 -1.93491
LeftToes  -1.62803e-010 -2.57217e-011 -2.5681e-011
185
root  -11.2704 40.7767 6.28152 -174.809 -69.2286 174.085
RightUpLeg  -5.11748 -11.6657 -10.8211
RightLeg  8.88572 -3.44006 2.20354
RightFoot  -1.15197 -0.394115 4.32928
RightToes  -2.9104e-010 0 -3.6325e-017
Spine  9.01178 0.528249 5.94979
Spine1  18.1634 2.30221 -3.54842
HEad  -4.88407 1.57037 3.87437
LeftShoulder1  8.58792 -13.3785 -44.299
LeftArm  -11.5256 10.062 -26.702
LeftForeArm  38.1108 -35.6317 -5.78894
LeftHand  -0.244104 0.0205437 5.32207
RightShoulder  6.50412 11.0612 38.586
RightArm  -11.3525 -9.33956 22.4405
RightForeArm  7.32172 7.42848 5.88346
RightHand  -1.22769 3.72066 -15.8151
LeftUpLeg  -5.20205 6.36255 4.97952
LeftLeg  5.26872 11.5444 -2.57412
LeftFoot  2.45342 0.254952 -2.2309
LeftToes  -1.62803e-010 -2.57217e-011 -2.5681e-011
186
root  -11.2318 40.7813 6.02898 -175.1 -68.2282 174.316
RightUpLeg  -5.38684 -11.462 -10.303
RightLeg  9.2174 -2.76984 2.22459
RightFoot  -1.36036 -0.348614 3.88387
RightToes  -2.9104e-010 0 -3.6325e-017
Spine  8.72722 0.120613 5.70687
Spine1  17.8697 1.68905 -3.20199
HEad  -3.74949 3.50472 2.94012
LeftShoulder1  8.52961 -13.268 -44.2874
LeftArm  -11.2621 10.434 -26.6933
LeftForeArm  38.3122 -35.7291 -5.80293
LeftHand  -0.244104 0.0205437 5.32207
RightShoulder  6.1896 10.7189 37.4927
RightArm  -11.5304 -12.3764 21.0265
RightForeArm  7.65384 7.64741 5.61955
RightHand  -1.14271 3.29817 -15.4228
LeftUpLeg  -4.69577 6.46388 5.4429
LeftLeg  4.9199 12.34 -2.5339
LeftFoot  2.5918 0.284305 -2.45571
LeftToes  -1.62803e-010 -2.57217e-011 -2.5681e-011
187
root  -11.1987 40.7861 5.78323 -175.439 -67.2393 174.534
RightUpLeg  -5.49942 -11.2066 -9.82362
RightLeg  9.43149 -2.10994 2.25561
RightFoot  -1.54965 -0.324468 3.66273
RightToes  -2.9104e-010 0 -3.6325e-017
Spine  8.35717 -0.259692 5.49257
Spine1  17.8521 1.15603 -2.96535
HEad  -2.88164 5.28764 2.1922
LeftShoulder1  8.46362 -13.1529 -44.2462
LeftArm  -10.9644 10.6576 -26.7761
LeftForeArm  38.4664 -35.5599 -5.75105
LeftHand  -0.244104 0.0205437 5.32207
RightShoulder  5.87514 10.3537 36.4044
RightArm  -12.6148 -14.7428 20.038
RightForeArm  7.41395 8.17323 5.24156
RightHand  -1.00019 2.84402 -14.2693
LeftUpLeg  -4.08311 6.55386 5.90166
LeftLeg  4.51734 13.1322 -2.52212
LeftFoot  2.70926 0.309586 -2.64589
LeftToes  -1.62803e-010 -2.57217e-011 -2.5681e-011
188
root  -11.1703 40.7916 5.54898 -175.83 -66.3582 174.757
RightUpLeg  -5.46024 -10.9526 -9.40115
RightLeg  9.55128 -1.54214 2.32014
RightFoot  -1.75305 -0.313014 3.58753
RightToes  -2.9104e-010 0 -3.6325e-017
Spine  7.95374 -0.623128 5.29478
Spine1  18.0119 0.672633 -2.79248
HEad  -2.43867 6.85129 1.5032
LeftShoulder1  8.3825 -13.038 -44.1202
LeftArm  -10.7712 10.8273 -27.0365
LeftForeArm  38.6864 -35.2468 -5.65927
LeftHand  -0.244104 0.0205437 5.32207
RightShoulder  5.56947 9.96381 35.3865
RightArm  -13.9222 -16.5641 19.4626
RightForeArm  5.84154 9.17553 4.98518
RightHand  -0.928556 2.65953 -13.564
LeftUpLeg  -3.43778 6.6812 6.3659
LeftLeg  4.14048 13.7596 -2.53055
LeftFoot  2.79385 0.341039 -2.88766
LeftToes  -1.62803e-010 -2.57217e-011 -2.5681e-011
189
root  -11.1495 40.7981 5.33144 -176.244 -65.6051 175.016
RightUpLeg  -5.35372 -10.7341 -9.00918
RightLeg  9.62075 -1.0944 2.412
RightFoot  -1.96784 -0.295214 3.43506
RightToes  -2.9104e-010 0 -3.6325e-017
Spine  7.63763 -0.959057 5.09556
Spine1  18.0031 0.229367 -2.64237
HEad  -2.30049 8.34672 0.846634
LeftShoulder1  8.31467 -12.9548 -43.9776
LeftArm  -10.6119 11.0868 -27.3895
LeftForeArm  38.7783 -34.7443 -5.52781
LeftHand  -0.244104 0.0205437 5.32207
RightShoulder  5.31405 9.60817 34.5745
RightArm  -15.052 -17.9821 19.2079
RightForeArm  3.11616 10.5273 4.86877
RightHand  -0.939567 2.56 -13.882
LeftUpLeg  -2.82461 6.82035 6.82358
LeftLeg  3.80152 14.2642 -2.53126
LeftFoot  2.86403 0.383275 -3.21557
LeftToes  -1.62803e-010 -2.57217e-011 -2.5681e-011
